<?xml version="1.0" encoding="UTF-8" standalone="no"?>
<!-- Created with Inkscape (http://www.inkscape.org/) -->

<svg
   version="1.1"
   id="svg1049"
   width="103"
   height="46"
   viewBox="0 0 306 140"
   xmlns="http://www.w3.org/2000/svg"
   xmlns:svg="http://www.w3.org/2000/svg">
  <defs
     id="defs1053" />
  <g
     id="layer1">
    <g
       aria-label="Jasmart"
       transform="scale(0.95608828,1.0459285)"
       id="text1995"
       style="font-weight:500;font-size:89.227px;font-family:'Baloo Tammudu 2';-inkscape-font-specification:'Baloo Tammudu 2 Medium';text-align:center;letter-spacing:1.7px;word-spacing:0px;text-anchor:middle;fill:#2ab9a5;stroke:#2ab9a4;stroke-width:1.97599;stroke-linejoin:round">
      <path
         id="path7058"
         style="font-weight:600;-inkscape-font-specification:'Baloo Tammudu 2 Semi-Bold'"
         d="m 293.79238,53.263256 h 10.2611 V 64.14895 q 0,3.033718 1.78454,4.372123 1.87377,1.249178 5.08594,1.249178 1.42763,0 3.12294,-0.446135 1.69532,-0.446135 2.9445,-0.981497 0.62458,0.713816 1.07072,1.695313 0.53536,0.981497 0.53536,2.230674 0,2.498356 -2.40913,4.193669 -2.40913,1.606086 -7.40584,1.606086 -6.9597,0 -10.97492,-3.033718 -4.01521,-3.122945 -4.01521,-10.261104 z m 6.15666,-9.458062 v -8.119656 h 17.57772 q 0.35691,0.535362 0.71381,1.695313 0.35691,1.070723 0.35691,2.319901 0,2.052221 -0.9815,3.122945 -0.98149,0.981497 -2.58758,0.981497 z m 4.10444,11.956418 h -10.2611 V 23.550666 q 0.71381,-0.267681 1.96299,-0.446135 1.33841,-0.267681 2.76604,-0.267681 2.85526,0 4.19367,1.070724 1.3384,0.981497 1.3384,3.658307 z M 267.19812,44.429783 V 57.01079 H 256.84779 V 43.805194 q 0,-2.230675 0.98149,-3.658307 0.9815,-1.516859 2.9445,-2.855263 2.67681,-1.606086 6.78125,-2.67681 4.10444,-1.070724 8.83347,-1.070724 8.11966,0 8.11966,4.907484 0,1.159951 -0.35691,2.230675 -0.26768,0.981497 -0.80304,1.695313 -0.89227,-0.178454 -2.31991,-0.356908 -1.3384,-0.178454 -2.76603,-0.178454 -3.39063,0 -6.24589,0.803043 -2.85527,0.713816 -4.81826,1.78454 z m -10.35033,8.833473 10.35033,0.624589 v 22.752884 q -0.71382,0.267681 -1.96299,0.446135 -1.24918,0.267681 -2.76604,0.267681 -2.85527,0 -4.2829,-1.070724 -1.3384,-1.070724 -1.3384,-3.658307 z m -31.59106,24.894332 q -8.74424,0 -13.83018,-3.390626 -4.99671,-3.479852 -4.99671,-10.171877 0,-5.888982 3.74753,-9.011927 3.83676,-3.212172 11.06415,-3.925988 l 12.2241,-1.249178 v -1.78454 q 0,-3.658307 -2.49836,-5.35362 -2.49836,-1.695313 -6.95971,-1.695313 -3.47985,0 -6.87047,0.981497 -3.3014,0.89227 -5.88899,2.141448 -0.89227,-0.713816 -1.60608,-1.873767 -0.62459,-1.159951 -0.62459,-2.409129 0,-3.122944 3.39063,-4.639803 2.49835,-1.070724 5.79975,-1.606086 3.3014,-0.624589 6.69202,-0.624589 8.5658,0 13.65174,3.658307 5.08593,3.658306 5.08593,11.510282 v 20.700664 q 0,2.052221 -0.98149,3.301398 -0.9815,1.159951 -2.58759,2.141448 -2.49835,1.427632 -6.24589,2.319902 -3.74753,0.981497 -8.56579,0.981497 z m 0,-7.941202 q 2.85527,0 4.99671,-0.535362 2.23068,-0.624589 3.3014,-1.338405 V 57.724606 l -9.2796,0.981497 q -3.74754,0.267681 -5.71053,1.695313 -1.963,1.338405 -1.963,3.925988 0,2.67681 2.05222,4.282896 2.14145,1.606086 6.6028,1.606086 z M 169.6637,47.731182 v 10.261105 h -10.35033 v -9.101154 q 0,-3.658307 -2.14145,-5.35362 -2.14145,-1.78454 -5.53207,-1.78454 -2.40913,0 -4.46135,0.803043 -2.05222,0.713816 -3.39063,1.606086 V 57.992287 H 133.43754 V 43.62674 q 0,-2.052221 0.80304,-3.390626 0.89227,-1.427632 2.76604,-2.587582 2.67681,-1.78454 6.69202,-2.944491 4.01522,-1.159951 8.20889,-1.159951 4.37212,0 8.03043,1.338405 3.6583,1.338405 5.88898,3.925987 0.62459,0.535362 1.07072,1.070724 0.53537,0.535362 0.89227,1.249178 0.80305,1.249178 1.33841,3.033718 0.53536,1.695313 0.53536,3.56908 z m 25.87583,0.803043 v 9.458062 H 185.1892 v -9.101154 q 0,-3.658307 -2.05222,-5.35362 -2.05222,-1.78454 -5.53208,-1.78454 -2.49835,0 -4.90748,1.070724 -2.3199,1.070724 -4.10444,2.855264 l -4.99672,-6.513571 q 2.58759,-2.319901 6.33512,-3.925987 3.83676,-1.695313 8.9227,-1.695313 4.72903,0 8.47657,1.516859 3.83676,1.516859 5.9782,4.907484 2.23068,3.301399 2.23068,8.565792 z m -62.10199,5.085939 h 10.35033 v 23.020565 q -0.71381,0.267681 -1.96299,0.446135 -1.24918,0.267681 -2.76604,0.267681 -2.85526,0 -4.2829,-1.070724 -1.3384,-1.070724 -1.3384,-3.658307 z m 25.87583,0 h 10.35033 v 23.020565 q -0.62459,0.267681 -1.96299,0.446135 -1.24918,0.267681 -2.76604,0.267681 -2.85526,0 -4.2829,-1.070724 -1.3384,-1.070724 -1.3384,-3.658307 z m 25.87583,0 h 10.35033 v 23.020565 q -0.62459,0.267681 -1.96299,0.446135 -1.24918,0.267681 -2.67681,0.267681 -2.9445,0 -4.37213,-1.070724 -1.3384,-1.070724 -1.3384,-3.658307 z M 122.27946,65.04122 q 0,6.156663 -4.55057,9.636515 -4.55058,3.479853 -13.2056,3.479853 -7.138158,0 -11.688735,-2.141448 -4.461349,-2.141448 -4.461349,-5.532073 0,-1.516859 0.713816,-2.67681 0.713816,-1.249178 1.873766,-1.962994 2.498356,1.606086 5.710528,2.944491 3.301399,1.249178 7.495064,1.249178 7.85198,0 7.85198,-4.907485 0,-2.052221 -1.33841,-3.301399 -1.3384,-1.338405 -4.19366,-1.962994 l -5.53208,-1.338405 q -6.335115,-1.427632 -9.368833,-4.46135 -3.033717,-3.033718 -3.033717,-7.941203 0,-5.442847 4.461349,-9.011926 4.550577,-3.658307 12.759461,-3.658307 4.19367,0 7.49507,0.89227 3.39062,0.803043 5.26439,2.409129 1.87377,1.516858 1.87377,3.658306 0,1.427632 -0.62459,2.587583 -0.62459,1.159951 -1.69531,1.78454 -1.07073,-0.624589 -2.9445,-1.338405 -1.78454,-0.803043 -4.10444,-1.338405 -2.23067,-0.535362 -4.6398,-0.535362 -3.47985,0 -5.6213,1.159951 -2.052223,1.159951 -2.052223,3.390626 0,1.606086 1.159951,2.766037 1.249182,1.070724 4.015212,1.78454 l 4.81826,1.159951 q 7.04893,1.606086 10.26111,4.818258 3.30139,3.212172 3.30139,8.387338 z M 58.65591,78.157588 q -8.744245,0 -13.830184,-3.390626 -4.996712,-3.479852 -4.996712,-10.171877 0,-5.888982 3.747534,-9.011927 3.836761,-3.212172 11.064147,-3.925988 l 12.224099,-1.249178 v -1.78454 q 0,-3.658307 -2.498356,-5.35362 -2.498356,-1.695313 -6.959706,-1.695313 -3.479853,0 -6.870478,0.981497 -3.301399,0.89227 -5.888982,2.141448 -0.89227,-0.713816 -1.606086,-1.873767 -0.624589,-1.159951 -0.624589,-2.409129 0,-3.122944 3.390626,-4.639803 2.498356,-1.070724 5.799755,-1.606086 3.301398,-0.624589 6.692024,-0.624589 8.565792,0 13.651731,3.658307 5.085939,3.658306 5.085939,11.510282 v 20.700664 q 0,2.052221 -0.981497,3.301398 -0.981497,1.159951 -2.587583,2.141448 -2.498356,1.427632 -6.24589,2.319902 -3.747534,0.981497 -8.565792,0.981497 z m 0,-7.941202 q 2.855264,0 4.996712,-0.535362 2.230675,-0.624589 3.301399,-1.338405 V 57.724606 l -9.279608,0.981497 q -3.747534,0.267681 -5.710527,1.695313 -1.962994,1.338405 -1.962994,3.925988 0,2.67681 2.052221,4.282896 2.141447,1.606086 6.602797,1.606086 z M 17.249905,51.032581 h 10.618013 v 11.421056 q 0,5.35362 -2.052221,8.833473 -2.052221,3.390625 -5.621301,5.085938 -3.56908,1.606086 -8.208884,1.606086 -4.9074844,0 -7.6735213,-1.427632 -2.7660369,-1.427632 -2.7660369,-4.372123 0,-1.516858 0.535362,-2.587582 0.535362,-1.070724 1.0707239,-1.606086 1.516859,0.446135 3.122945,0.89227 1.6060859,0.356908 3.3906259,0.356908 3.8367604,0 5.7105274,-1.873767 1.873767,-1.873767 1.873767,-5.888982 z m 10.618013,4.015215 H 17.249905 v -32.3894 q 0.713816,-0.178454 2.052221,-0.446135 1.427632,-0.267681 2.855264,-0.267681 2.944491,0 4.282896,1.070724 1.427632,1.070724 1.427632,3.925988 z" />
    </g>
  </g>
  <g
     id="layer2">
    <g
       aria-label="ELECTRIC"
       id="text6777"
       style="font-size:29.3333px;font-family:'Arial Unicode MS';-inkscape-font-specification:'Arial Unicode MS';text-align:center;letter-spacing:22.5px;text-anchor:middle;fill:#333333;stroke:#333333;stroke-width:1.88976;stroke-linejoin:round">
      <path
         id="path7075"
         d="m 302.54809,108.79204 q -0.91667,3.53775 -3.20833,5.28515 -2.27734,1.73307 -5.47135,1.73307 -5.15624,0 -7.51952,-3.22265 -2.34896,-3.23698 -2.34896,-7.77734 0,-5.027336 2.76432,-7.86327 2.77865,-2.850258 7.13281,-2.850258 3.0651,0 5.24218,1.561196 2.17708,1.561197 3.05078,4.569002 l -2.72135,0.64453 q -0.6875,-2.1914 -2.09115,-3.294263 -1.40364,-1.102863 -3.50911,-1.102863 -3.43749,0 -5.21353,2.263018 -1.77604,2.248698 -1.77604,6.044268 0,4.3828 1.86197,6.51692 1.8763,2.13411 4.88411,2.13411 2.46354,0 3.99609,-1.33203 1.54688,-1.33203 2.16276,-4.01041 z m -45.20179,6.66015 h -2.79296 V 94.454815 h 2.79296 z m -28.31509,0 h -3.49478 q -3.13672,-4.95573 -3.89583,-6.08724 -0.75912,-1.13151 -1.60417,-1.93359 -0.83073,-0.8164 -1.57552,-1.03125 -0.73047,-0.21484 -1.94791,-0.21484 h -3.20833 v 9.26692 h -2.77864 V 94.454815 h 9.29556 q 1.90494,0 3.194,0.243489 1.28907,0.243489 2.26302,1.031249 0.97396,0.773437 1.48958,1.962237 0.52995,1.188801 0.52995,2.50651 0,2.3776 -1.5039,3.82421 -1.50391,1.44662 -4.38281,1.83333 v 0.0573 q 2.10547,0.93098 3.95312,3.82421 z m -15.72654,-11.7591 h 5.95832 q 1.80469,0 2.85026,-0.30079 1.0599,-0.3151 1.6901,-1.20312 0.63021,-0.88802 0.63021,-1.99088 0,-1.432292 -1.04557,-2.434895 -1.04557,-1.002603 -3.45182,-1.002603 h -6.6315 z M 185.03253,96.947 h -6.9466 v 18.50519 h -2.79297 V 96.947 h -6.88931 v -2.492185 h 16.62888 z m -40.91925,11.84504 q -0.91666,3.53775 -3.20833,5.28515 -2.27734,1.73307 -5.47134,1.73307 -5.15625,0 -7.51953,-3.22265 -2.34895,-3.23698 -2.34895,-7.77734 0,-5.027336 2.76432,-7.86327 2.77864,-2.850258 7.1328,-2.850258 3.0651,0 5.24218,1.561196 2.17708,1.561197 3.05078,4.569002 l -2.72135,0.64453 q -0.6875,-2.1914 -2.09114,-3.294263 -1.40365,-1.102863 -3.50911,-1.102863 -3.4375,0 -5.21354,2.263018 -1.77604,2.248698 -1.77604,6.044268 0,4.3828 1.86198,6.51692 1.8763,2.13411 4.88411,2.13411 2.46354,0 3.99609,-1.33203 1.54687,-1.33203 2.16275,-4.01041 z m -44.09893,6.66015 H 84.330777 V 94.454815 H 99.527374 V 96.947 H 87.109419 v 6.41666 h 11.615872 v 2.49218 H 87.109419 V 112.96 h 12.904931 z m -41.477842,0 h -13.1341 V 94.454815 h 2.778643 V 112.96 h 10.355457 z m -39.401024,0 H 3.4519087 V 94.454815 H 18.648506 V 96.947 H 6.2305513 v 6.41666 H 17.846423 v 2.49218 H 6.2305513 V 112.96 H 19.135484 Z" />
    </g>
  </g>
</svg>
